<svg xmlns="http://www.w3.org/2000/svg" xmlns:xlink="http://www.w3.org/1999/xlink" width="500" zoomAndPan="magnify" viewBox="0 0 375 374.999991" height="500" preserveAspectRatio="xMidYMid meet" version="1.0"><defs><g/><clipPath id="f8a773a479"><path d="M 126.585938 76.25 L 250.433594 76.25 L 250.433594 245.027344 L 126.585938 245.027344 Z M 126.585938 76.25 " clip-rule="nonzero"/></clipPath><clipPath id="96c7a6b96a"><path d="M 107 41 L 217 41 L 217 116 L 107 116 Z M 107 41 " clip-rule="nonzero"/></clipPath><clipPath id="5746fabf83"><path d="M 202.121094 41.140625 L 216.664062 82.476562 L 121.777344 115.855469 L 107.234375 74.523438 Z M 202.121094 41.140625 " clip-rule="nonzero"/></clipPath><clipPath id="4990036117"><path d="M 202.121094 41.140625 L 216.664062 82.476562 L 121.777344 115.855469 L 107.234375 74.523438 Z M 202.121094 41.140625 " clip-rule="nonzero"/></clipPath><clipPath id="f30f46e0e5"><path d="M 114 89 L 156 89 L 156 129 L 114 129 Z M 114 89 " clip-rule="nonzero"/></clipPath><clipPath id="fb4d43f987"><path d="M 145.558594 89.679688 L 155.257812 117.253906 L 123.75 128.335938 L 114.050781 100.765625 Z M 145.558594 89.679688 " clip-rule="nonzero"/></clipPath><clipPath id="5cca9a6f06"><path d="M 145.558594 89.679688 L 155.257812 117.253906 L 123.75 128.335938 L 114.050781 100.765625 Z M 145.558594 89.679688 " clip-rule="nonzero"/></clipPath><clipPath id="663f389cda"><path d="M 164 43 L 268 43 L 268 114 L 164 114 Z M 164 43 " clip-rule="nonzero"/></clipPath><clipPath id="cee1d295e9"><path d="M 267.757812 68.453125 L 255.203125 113.722656 L 164.398438 88.542969 L 176.953125 43.273438 Z M 267.757812 68.453125 " clip-rule="nonzero"/></clipPath><clipPath id="4375e24e51"><path d="M 267.757812 68.453125 L 255.203125 113.722656 L 164.398438 88.542969 L 176.953125 43.273438 Z M 267.757812 68.453125 " clip-rule="nonzero"/></clipPath><clipPath id="2abd2edbd0"><path d="M 126.585938 38 L 251.183594 38 L 251.183594 245.164062 L 126.585938 245.164062 Z M 126.585938 38 " clip-rule="nonzero"/></clipPath></defs><rect x="-37.5" width="450" fill="#ffffff" y="-37.499999" height="449.999989" fill-opacity="1"/><rect x="-37.5" width="450" fill="#ffffff" y="-37.499999" height="449.999989" fill-opacity="1"/><rect x="-37.5" width="450" fill="#ffffff" y="-37.499999" height="449.999989" fill-opacity="1"/><g fill="#1a3b29" fill-opacity="1"><g transform="translate(53.72419, 303.414939)"><g><path d="M 34.015625 -22.09375 L 43.078125 -22.09375 L 43.078125 -4.71875 C 40.753906 -2.957031 38.0625 -1.609375 35 -0.671875 C 31.9375 0.265625 28.859375 0.734375 25.765625 0.734375 C 21.316406 0.734375 17.316406 -0.210938 13.765625 -2.109375 C 10.210938 -4.003906 7.425781 -6.632812 5.40625 -10 C 3.394531 -13.363281 2.390625 -17.171875 2.390625 -21.421875 C 2.390625 -25.660156 3.394531 -29.460938 5.40625 -32.828125 C 7.425781 -36.191406 10.234375 -38.820312 13.828125 -40.71875 C 17.421875 -42.613281 21.457031 -43.5625 25.9375 -43.5625 C 29.695312 -43.5625 33.101562 -42.925781 36.15625 -41.65625 C 39.21875 -40.394531 41.789062 -38.5625 43.875 -36.15625 L 37.515625 -30.28125 C 34.453125 -33.507812 30.757812 -35.125 26.4375 -35.125 C 23.695312 -35.125 21.265625 -34.550781 19.140625 -33.40625 C 17.023438 -32.257812 15.375 -30.644531 14.1875 -28.5625 C 13.007812 -26.488281 12.421875 -24.109375 12.421875 -21.421875 C 12.421875 -18.765625 13.007812 -16.394531 14.1875 -14.3125 C 15.375 -12.238281 17.015625 -10.617188 19.109375 -9.453125 C 21.210938 -8.285156 23.613281 -7.703125 26.3125 -7.703125 C 29.164062 -7.703125 31.734375 -8.316406 34.015625 -9.546875 Z M 34.015625 -22.09375 "/></g></g></g><g fill="#1a3b29" fill-opacity="1"><g transform="translate(104.014677, 303.414939)"><g><path d="M 36.65625 -16.34375 C 36.65625 -16.21875 36.59375 -15.359375 36.46875 -13.765625 L 11.5625 -13.765625 C 12.007812 -11.722656 13.066406 -10.109375 14.734375 -8.921875 C 16.410156 -7.742188 18.492188 -7.15625 20.984375 -7.15625 C 22.703125 -7.15625 24.222656 -7.410156 25.546875 -7.921875 C 26.867188 -8.429688 28.101562 -9.238281 29.25 -10.34375 L 34.328125 -4.828125 C 31.222656 -1.285156 26.695312 0.484375 20.75 0.484375 C 17.03125 0.484375 13.742188 -0.238281 10.890625 -1.6875 C 8.035156 -3.132812 5.832031 -5.140625 4.28125 -7.703125 C 2.726562 -10.273438 1.953125 -13.191406 1.953125 -16.453125 C 1.953125 -19.679688 2.71875 -22.585938 4.25 -25.171875 C 5.78125 -27.765625 7.878906 -29.785156 10.546875 -31.234375 C 13.222656 -32.679688 16.210938 -33.40625 19.515625 -33.40625 C 22.742188 -33.40625 25.660156 -32.710938 28.265625 -31.328125 C 30.878906 -29.941406 32.929688 -27.953125 34.421875 -25.359375 C 35.910156 -22.773438 36.65625 -19.769531 36.65625 -16.34375 Z M 19.578125 -26.1875 C 17.421875 -26.1875 15.609375 -25.570312 14.140625 -24.34375 C 12.671875 -23.125 11.769531 -21.453125 11.4375 -19.328125 L 27.65625 -19.328125 C 27.332031 -21.410156 26.4375 -23.070312 24.96875 -24.3125 C 23.5 -25.5625 21.703125 -26.1875 19.578125 -26.1875 Z M 19.578125 -26.1875 "/></g></g></g><g fill="#1a3b29" fill-opacity="1"><g transform="translate(145.739894, 303.414939)"><g><path d="M 24.40625 -33.40625 C 28.488281 -33.40625 31.785156 -32.179688 34.296875 -29.734375 C 36.804688 -27.285156 38.0625 -23.65625 38.0625 -18.84375 L 38.0625 0 L 28.515625 0 L 28.515625 -17.375 C 28.515625 -19.988281 27.941406 -21.9375 26.796875 -23.21875 C 25.660156 -24.5 24.007812 -25.140625 21.84375 -25.140625 C 19.4375 -25.140625 17.519531 -24.394531 16.09375 -22.90625 C 14.664062 -21.425781 13.953125 -19.21875 13.953125 -16.28125 L 13.953125 0 L 4.40625 0 L 4.40625 -45.40625 L 13.953125 -45.40625 L 13.953125 -29.5 C 15.210938 -30.757812 16.738281 -31.722656 18.53125 -32.390625 C 20.332031 -33.066406 22.289062 -33.40625 24.40625 -33.40625 Z M 24.40625 -33.40625 "/></g></g></g><g fill="#1a3b29" fill-opacity="1"><g transform="translate(191.135939, 303.414939)"><g><path d="M 17.6875 -33.40625 C 22.78125 -33.40625 26.691406 -32.191406 29.421875 -29.765625 C 32.160156 -27.335938 33.53125 -23.675781 33.53125 -18.78125 L 33.53125 0 L 24.59375 0 L 24.59375 -4.09375 C 22.800781 -1.039062 19.457031 0.484375 14.5625 0.484375 C 12.03125 0.484375 9.835938 0.0546875 7.984375 -0.796875 C 6.128906 -1.648438 4.710938 -2.832031 3.734375 -4.34375 C 2.753906 -5.851562 2.265625 -7.566406 2.265625 -9.484375 C 2.265625 -12.546875 3.414062 -14.953125 5.71875 -16.703125 C 8.019531 -18.453125 11.578125 -19.328125 16.390625 -19.328125 L 23.984375 -19.328125 C 23.984375 -21.410156 23.347656 -23.015625 22.078125 -24.140625 C 20.816406 -25.265625 18.921875 -25.828125 16.390625 -25.828125 C 14.640625 -25.828125 12.914062 -25.550781 11.21875 -25 C 9.53125 -24.445312 8.097656 -23.703125 6.921875 -22.765625 L 3.484375 -29.4375 C 5.285156 -30.695312 7.4375 -31.671875 9.9375 -32.359375 C 12.445312 -33.054688 15.03125 -33.40625 17.6875 -33.40625 Z M 16.953125 -5.9375 C 18.578125 -5.9375 20.019531 -6.3125 21.28125 -7.0625 C 22.550781 -7.820312 23.453125 -8.9375 23.984375 -10.40625 L 23.984375 -13.765625 L 17.4375 -13.765625 C 13.519531 -13.765625 11.5625 -12.476562 11.5625 -9.90625 C 11.5625 -8.6875 12.039062 -7.71875 13 -7 C 13.957031 -6.289062 15.273438 -5.9375 16.953125 -5.9375 Z M 16.953125 -5.9375 "/></g></g></g><g fill="#1a3b29" fill-opacity="1"><g transform="translate(232.004634, 303.414939)"><g><path d="M 18.546875 -12.90625 L 13.953125 -8.375 L 13.953125 0 L 4.40625 0 L 4.40625 -45.40625 L 13.953125 -45.40625 L 13.953125 -19.703125 L 27.90625 -32.921875 L 39.28125 -32.921875 L 25.578125 -18.96875 L 40.5 0 L 28.9375 0 Z M 18.546875 -12.90625 "/></g></g></g><g fill="#1a3b29" fill-opacity="1"><g transform="translate(275.504087, 303.414939)"><g><path d="M 25.640625 -1.59375 C 24.703125 -0.894531 23.546875 -0.375 22.171875 -0.03125 C 20.804688 0.3125 19.367188 0.484375 17.859375 0.484375 C 13.953125 0.484375 10.925781 -0.507812 8.78125 -2.5 C 6.632812 -4.5 5.5625 -7.4375 5.5625 -11.3125 L 5.5625 -24.84375 L 0.484375 -24.84375 L 0.484375 -32.1875 L 5.5625 -32.1875 L 5.5625 -40.203125 L 15.109375 -40.203125 L 15.109375 -32.1875 L 23.3125 -32.1875 L 23.3125 -24.84375 L 15.109375 -24.84375 L 15.109375 -11.4375 C 15.109375 -10.050781 15.460938 -8.976562 16.171875 -8.21875 C 16.890625 -7.46875 17.90625 -7.09375 19.21875 -7.09375 C 20.726562 -7.09375 22.007812 -7.503906 23.0625 -8.328125 Z M 25.640625 -1.59375 "/></g></g></g><g fill="#1a3b29" fill-opacity="1"><g transform="translate(305.23792, 303.414939)"><g><path d="M 8.015625 0.484375 C 6.335938 0.484375 4.925781 -0.0820312 3.78125 -1.21875 C 2.644531 -2.363281 2.078125 -3.789062 2.078125 -5.5 C 2.078125 -7.257812 2.644531 -8.675781 3.78125 -9.75 C 4.925781 -10.832031 6.335938 -11.375 8.015625 -11.375 C 9.691406 -11.375 11.097656 -10.832031 12.234375 -9.75 C 13.378906 -8.675781 13.953125 -7.257812 13.953125 -5.5 C 13.953125 -3.789062 13.378906 -2.363281 12.234375 -1.21875 C 11.097656 -0.0820312 9.691406 0.484375 8.015625 0.484375 Z M 8.015625 0.484375 "/></g></g></g><g clip-path="url(#f8a773a479)"><path fill="#1a3b29" d="M 241.957031 76.25 L 135.058594 76.25 C 134.503906 76.25 133.957031 76.304688 133.414062 76.414062 C 132.871094 76.523438 132.34375 76.683594 131.832031 76.894531 C 131.320312 77.109375 130.832031 77.367188 130.371094 77.675781 C 129.914062 77.984375 129.484375 78.332031 129.09375 78.726562 C 128.703125 79.117188 128.351562 79.542969 128.046875 80.003906 C 127.738281 80.464844 127.476562 80.949219 127.265625 81.460938 C 127.050781 81.972656 126.890625 82.5 126.785156 83.042969 C 126.675781 83.585938 126.621094 84.136719 126.621094 84.6875 L 126.621094 236.589844 C 126.621094 237.140625 126.675781 237.691406 126.785156 238.234375 C 126.890625 238.777344 127.050781 239.304688 127.265625 239.816406 C 127.476562 240.328125 127.738281 240.8125 128.046875 241.273438 C 128.351562 241.734375 128.703125 242.160156 129.09375 242.554688 C 129.484375 242.945312 129.914062 243.292969 130.371094 243.601562 C 130.832031 243.910156 131.320312 244.171875 131.832031 244.382812 C 132.34375 244.59375 132.871094 244.753906 133.414062 244.863281 C 133.957031 244.972656 134.503906 245.027344 135.058594 245.027344 L 241.957031 245.027344 C 242.511719 245.027344 243.058594 244.972656 243.601562 244.863281 C 244.144531 244.753906 244.675781 244.59375 245.1875 244.382812 C 245.695312 244.171875 246.183594 243.910156 246.644531 243.601562 C 247.105469 243.292969 247.53125 242.945312 247.921875 242.554688 C 248.3125 242.160156 248.664062 241.734375 248.972656 241.273438 C 249.28125 240.8125 249.539062 240.328125 249.75 239.816406 C 249.964844 239.304688 250.125 238.777344 250.234375 238.234375 C 250.339844 237.691406 250.394531 237.140625 250.398438 236.589844 L 250.398438 84.6875 C 250.394531 84.136719 250.339844 83.585938 250.234375 83.042969 C 250.125 82.5 249.964844 81.972656 249.75 81.460938 C 249.539062 80.949219 249.28125 80.464844 248.972656 80.003906 C 248.664062 79.542969 248.3125 79.117188 247.921875 78.726562 C 247.53125 78.332031 247.105469 77.984375 246.644531 77.675781 C 246.183594 77.367188 245.695312 77.109375 245.183594 76.894531 C 244.675781 76.683594 244.144531 76.523438 243.601562 76.414062 C 243.058594 76.304688 242.511719 76.25 241.957031 76.25 Z M 244.769531 208.324219 C 235.890625 195.964844 227.890625 182.222656 227.890625 160.640625 C 227.890625 139.0625 235.898438 125.328125 244.769531 112.964844 Z M 189.722656 115.710938 L 188.945312 116.941406 C 181.992188 127.945312 170.898438 140.105469 160.171875 151.863281 C 149.3125 163.765625 138.910156 175.171875 132.246094 185.667969 L 132.246094 151.054688 L 133.03125 150.488281 C 138.214844 146.730469 144.667969 142.058594 150.925781 136.835938 C 151.214844 136.597656 151.445312 136.3125 151.617188 135.980469 C 151.792969 135.648438 151.898438 135.300781 151.929688 134.925781 C 151.964844 134.554688 151.925781 134.191406 151.816406 133.832031 C 151.703125 133.476562 151.527344 133.15625 151.289062 132.867188 C 151.050781 132.582031 150.765625 132.351562 150.433594 132.179688 C 150.101562 132.003906 149.75 131.902344 149.378906 131.871094 C 149.007812 131.835938 148.644531 131.875 148.285156 131.988281 C 147.929688 132.101562 147.609375 132.277344 147.324219 132.515625 C 142.132812 136.84375 136.984375 140.65625 132.246094 144.101562 L 132.246094 119.976562 C 133.546875 119.390625 134.820312 118.816406 136.203125 118.203125 C 154.53125 110.058594 159.367188 97.765625 160.277344 81.875 L 175.015625 81.875 C 177.839844 95.683594 171.492188 109.847656 155.613281 125.109375 C 155.347656 125.367188 155.140625 125.667969 154.996094 126.007812 C 154.847656 126.347656 154.769531 126.703125 154.761719 127.078125 C 154.757812 127.449219 154.820312 127.808594 154.957031 128.152344 C 155.09375 128.5 155.289062 128.804688 155.546875 129.074219 C 155.804688 129.339844 156.105469 129.550781 156.445312 129.699219 C 156.785156 129.847656 157.140625 129.929688 157.511719 129.9375 C 157.882812 129.945312 158.242188 129.882812 158.589844 129.75 C 158.933594 129.617188 159.242188 129.421875 159.511719 129.164062 C 176.5 112.835938 183.46875 97.328125 180.75 81.875 L 199.726562 81.875 C 199.390625 100.414062 195.6875 106.300781 189.722656 115.710938 Z M 135.058594 81.875 L 154.648438 81.875 C 153.792969 95.898438 149.597656 106.09375 133.917969 113.058594 C 133.332031 113.320312 132.816406 113.554688 132.246094 113.808594 L 132.246094 84.6875 C 132.246094 84.316406 132.316406 83.957031 132.460938 83.613281 C 132.605469 83.269531 132.808594 82.964844 133.070312 82.703125 C 133.335938 82.4375 133.640625 82.234375 133.984375 82.089844 C 134.328125 81.949219 134.6875 81.875 135.058594 81.875 Z M 132.246094 197.765625 C 136.980469 185.644531 150.871094 170.40625 164.328125 155.65625 C 169.894531 149.554688 175.550781 143.34375 180.722656 137.207031 C 171.75 168.863281 179.953125 202.527344 205.566406 239.402344 L 185.335938 239.402344 C 183.703125 230.871094 181.371094 222.539062 178.339844 214.402344 C 173.8125 202.347656 170.632812 189.949219 168.796875 177.207031 C 168.738281 176.652344 168.53125 176.164062 168.179688 175.734375 C 167.828125 175.304688 167.386719 175.003906 166.855469 174.835938 C 166.328125 174.667969 165.792969 174.65625 165.257812 174.804688 C 164.722656 174.953125 164.269531 175.234375 163.902344 175.648438 C 156.441406 184.828125 150.109375 194.726562 144.902344 205.34375 C 139.691406 215.960938 135.742188 227.027344 133.046875 238.542969 C 132.515625 238 132.246094 237.347656 132.246094 236.589844 Z M 163.136719 213.53125 C 163.019531 212.964844 162.757812 212.476562 162.339844 212.070312 C 161.925781 211.664062 161.429688 211.414062 160.855469 211.3125 C 160.285156 211.214844 159.734375 211.285156 159.207031 211.527344 C 158.679688 211.769531 158.265625 212.140625 157.964844 212.636719 C 155.59375 216.746094 153.675781 221.054688 152.203125 225.5625 C 150.730469 230.074219 149.738281 234.6875 149.226562 239.402344 L 138.605469 239.402344 C 141.042969 229.496094 144.40625 219.917969 148.707031 210.667969 C 153.003906 201.414062 158.148438 192.664062 164.148438 184.414062 C 166.273438 195.242188 169.226562 205.839844 173.007812 216.203125 C 175.808594 223.769531 178.023438 231.5 179.648438 239.402344 L 168.308594 239.402344 Z M 162.570312 239.402344 L 154.871094 239.402344 C 155.472656 233.632812 156.929688 228.09375 159.246094 222.777344 Z M 241.957031 239.402344 L 235.296875 239.402344 C 232.277344 233.117188 228.9375 227.011719 225.269531 221.082031 C 225.078125 220.761719 224.832031 220.492188 224.535156 220.269531 C 224.234375 220.050781 223.90625 219.894531 223.542969 219.800781 C 223.183594 219.710938 222.820312 219.695312 222.449219 219.75 C 222.082031 219.800781 221.738281 219.925781 221.417969 220.117188 C 221.097656 220.308594 220.828125 220.550781 220.605469 220.851562 C 220.382812 221.148438 220.226562 221.476562 220.132812 221.839844 C 220.042969 222.199219 220.023438 222.566406 220.078125 222.933594 C 220.128906 223.300781 220.25 223.644531 220.441406 223.964844 C 223.390625 228.902344 226.402344 233.992188 229.070312 239.402344 L 212.480469 239.402344 C 180.742188 195.230469 174.601562 156.101562 193.777344 119.824219 L 194.476562 118.71875 C 200.535156 109.164062 204.972656 102.105469 205.351562 81.875 L 229.210938 81.875 C 225.996094 88.800781 222.386719 95.515625 218.382812 102.011719 C 209.226562 117.40625 199.761719 133.320312 199.761719 160.640625 C 199.71875 165.191406 199.988281 169.722656 200.566406 174.238281 C 201.144531 178.753906 202.027344 183.210938 203.214844 187.601562 C 204.40625 191.996094 205.886719 196.289062 207.660156 200.484375 C 209.433594 204.675781 211.488281 208.726562 213.816406 212.636719 C 213.996094 212.964844 214.230469 213.246094 214.523438 213.480469 C 214.816406 213.714844 215.140625 213.882812 215.5 213.988281 C 215.859375 214.09375 216.226562 214.125 216.597656 214.082031 C 216.96875 214.039062 217.320312 213.925781 217.648438 213.746094 C 217.976562 213.5625 218.253906 213.324219 218.488281 213.03125 C 218.71875 212.738281 218.886719 212.410156 218.988281 212.050781 C 219.089844 211.691406 219.117188 211.324219 219.074219 210.953125 C 219.03125 210.582031 218.917969 210.234375 218.734375 209.90625 C 216.523438 206.199219 214.578125 202.363281 212.894531 198.390625 C 211.210938 194.417969 209.804688 190.351562 208.679688 186.1875 C 207.550781 182.023438 206.710938 177.804688 206.160156 173.527344 C 205.609375 169.25 205.351562 164.953125 205.386719 160.640625 C 205.386719 134.867188 214.046875 120.304688 223.214844 104.890625 C 227.808594 97.503906 231.851562 89.835938 235.355469 81.875 L 241.957031 81.875 C 242.332031 81.875 242.6875 81.949219 243.035156 82.089844 C 243.378906 82.234375 243.683594 82.4375 243.945312 82.703125 C 244.210938 82.964844 244.414062 83.269531 244.554688 83.613281 C 244.699219 83.957031 244.769531 84.316406 244.769531 84.6875 L 244.769531 103.449219 L 244.492188 103.824219 C 233.566406 118.558594 222.265625 133.789062 222.265625 160.640625 C 222.265625 187.546875 233.601562 202.804688 244.570312 217.558594 L 244.769531 217.828125 L 244.769531 236.589844 C 244.769531 236.960938 244.699219 237.320312 244.554688 237.664062 C 244.414062 238.007812 244.210938 238.3125 243.945312 238.578125 C 243.683594 238.839844 243.378906 239.042969 243.035156 239.1875 C 242.6875 239.328125 242.332031 239.402344 241.957031 239.402344 Z M 241.957031 239.402344 " fill-opacity="1" fill-rule="nonzero"/></g><g clip-path="url(#96c7a6b96a)"><g clip-path="url(#5746fabf83)"><g clip-path="url(#4990036117)"><path fill="#ffffff" d="M 202.121094 41.140625 L 216.664062 82.476562 L 121.777344 115.855469 L 107.234375 74.523438 Z M 202.121094 41.140625 " fill-opacity="1" fill-rule="nonzero"/></g></g></g><g clip-path="url(#f30f46e0e5)"><g clip-path="url(#fb4d43f987)"><g clip-path="url(#5cca9a6f06)"><path fill="#ffffff" d="M 145.558594 89.679688 L 155.257812 117.253906 L 123.75 128.335938 L 114.050781 100.765625 Z M 145.558594 89.679688 " fill-opacity="1" fill-rule="nonzero"/></g></g></g><g clip-path="url(#663f389cda)"><g clip-path="url(#cee1d295e9)"><g clip-path="url(#4375e24e51)"><path fill="#ffffff" d="M 267.757812 68.453125 L 255.203125 113.722656 L 164.398438 88.542969 L 176.953125 43.273438 Z M 267.757812 68.453125 " fill-opacity="1" fill-rule="nonzero"/></g></g></g><g clip-path="url(#2abd2edbd0)"><path fill="#1a3b29" d="M 181.40625 90.800781 L 180.71875 83.84375 C 179.976562 76.546875 177.902344 69.558594 175.769531 63.085938 C 175.328125 61.738281 175.097656 60.335938 175.097656 58.90625 C 175.097656 54.753906 176.945312 50.855469 180.152344 48.222656 C 182.660156 46.160156 185.679688 45.09375 188.871094 45.09375 C 189.828125 45.09375 190.800781 45.191406 191.785156 45.390625 C 197.066406 46.445312 201.351562 50.761719 202.417969 56.140625 C 202.902344 58.582031 202.753906 60.96875 201.972656 63.261719 C 200.003906 68.953125 197.890625 75.75 197.1875 82.871094 L 196.394531 90.800781 C 195.894531 95.792969 199.019531 100.417969 203.847656 101.792969 L 241.597656 112.582031 C 243.082031 113 244.105469 114.375 244.105469 115.902344 L 244.105469 234.988281 C 244.105469 236.890625 242.554688 238.441406 240.65625 238.441406 L 137.144531 238.441406 C 135.242188 238.441406 133.691406 236.890625 133.691406 234.988281 L 133.691406 115.902344 C 133.691406 114.375 134.71875 113 136.199219 112.582031 L 173.953125 101.792969 C 178.777344 100.417969 181.902344 95.792969 181.40625 90.800781 Z M 172.050781 95.144531 L 134.300781 105.949219 C 129.878906 107.203125 126.792969 111.300781 126.792969 115.902344 L 126.792969 234.988281 C 126.792969 240.707031 131.429688 245.347656 137.144531 245.347656 L 240.65625 245.347656 C 246.371094 245.347656 251.007812 240.707031 251.007812 234.988281 L 251.007812 115.902344 C 251.007812 111.300781 247.917969 107.203125 243.5 105.949219 L 205.746094 95.144531 C 204.128906 94.6875 203.089844 93.148438 203.253906 91.488281 L 204.046875 83.558594 C 204.695312 77.140625 206.664062 70.839844 208.496094 65.5 C 209.683594 62.046875 209.925781 58.449219 209.183594 54.777344 C 207.578125 46.714844 201.125 40.214844 193.132812 38.609375 C 186.929688 37.382812 180.597656 38.933594 175.785156 42.871094 C 170.960938 46.835938 168.195312 52.675781 168.195312 58.90625 C 168.195312 61.078125 168.535156 63.207031 169.222656 65.257812 C 171.230469 71.339844 173.183594 77.910156 173.84375 84.53125 L 174.542969 91.488281 C 174.707031 93.148438 173.667969 94.6875 172.050781 95.144531 " fill-opacity="1" fill-rule="nonzero"/></g><path fill="#1a3b29" d="M 188.898438 65.8125 C 192.699219 65.8125 195.800781 62.710938 195.800781 58.90625 C 195.800781 55.101562 192.699219 52 188.898438 52 C 185.097656 52 182 55.101562 182 58.90625 C 182 62.710938 185.097656 65.8125 188.898438 65.8125 " fill-opacity="1" fill-rule="nonzero"/></svg>