<svg xmlns="http://www.w3.org/2000/svg" xmlns:xlink="http://www.w3.org/1999/xlink" width="500" zoomAndPan="magnify" viewBox="0 0 375 374.999991" height="500" preserveAspectRatio="xMidYMid meet" version="1.0"><defs><g/></defs><rect x="-37.5" width="450" fill="#ffffff" y="-37.499999" height="449.999989" fill-opacity="1"/><rect x="-37.5" width="450" fill="#ffffff" y="-37.499999" height="449.999989" fill-opacity="1"/><g fill="#1a3b29" fill-opacity="1"><g transform="translate(53.72419, 202.292224)"><g><path d="M 34.015625 -22.09375 L 43.078125 -22.09375 L 43.078125 -4.71875 C 40.753906 -2.957031 38.0625 -1.609375 35 -0.671875 C 31.9375 0.265625 28.859375 0.734375 25.765625 0.734375 C 21.316406 0.734375 17.316406 -0.210938 13.765625 -2.109375 C 10.210938 -4.003906 7.425781 -6.632812 5.40625 -10 C 3.394531 -13.363281 2.390625 -17.171875 2.390625 -21.421875 C 2.390625 -25.660156 3.394531 -29.460938 5.40625 -32.828125 C 7.425781 -36.191406 10.234375 -38.820312 13.828125 -40.71875 C 17.421875 -42.613281 21.457031 -43.5625 25.9375 -43.5625 C 29.695312 -43.5625 33.101562 -42.925781 36.15625 -41.65625 C 39.21875 -40.394531 41.789062 -38.5625 43.875 -36.15625 L 37.515625 -30.28125 C 34.453125 -33.507812 30.757812 -35.125 26.4375 -35.125 C 23.695312 -35.125 21.265625 -34.550781 19.140625 -33.40625 C 17.023438 -32.257812 15.375 -30.644531 14.1875 -28.5625 C 13.007812 -26.488281 12.421875 -24.109375 12.421875 -21.421875 C 12.421875 -18.765625 13.007812 -16.394531 14.1875 -14.3125 C 15.375 -12.238281 17.015625 -10.617188 19.109375 -9.453125 C 21.210938 -8.285156 23.613281 -7.703125 26.3125 -7.703125 C 29.164062 -7.703125 31.734375 -8.316406 34.015625 -9.546875 Z M 34.015625 -22.09375 "/></g></g></g><g fill="#1a3b29" fill-opacity="1"><g transform="translate(104.014677, 202.292224)"><g><path d="M 36.65625 -16.34375 C 36.65625 -16.21875 36.59375 -15.359375 36.46875 -13.765625 L 11.5625 -13.765625 C 12.007812 -11.722656 13.066406 -10.109375 14.734375 -8.921875 C 16.410156 -7.742188 18.492188 -7.15625 20.984375 -7.15625 C 22.703125 -7.15625 24.222656 -7.410156 25.546875 -7.921875 C 26.867188 -8.429688 28.101562 -9.238281 29.25 -10.34375 L 34.328125 -4.828125 C 31.222656 -1.285156 26.695312 0.484375 20.75 0.484375 C 17.03125 0.484375 13.742188 -0.238281 10.890625 -1.6875 C 8.035156 -3.132812 5.832031 -5.140625 4.28125 -7.703125 C 2.726562 -10.273438 1.953125 -13.191406 1.953125 -16.453125 C 1.953125 -19.679688 2.71875 -22.585938 4.25 -25.171875 C 5.78125 -27.765625 7.878906 -29.785156 10.546875 -31.234375 C 13.222656 -32.679688 16.210938 -33.40625 19.515625 -33.40625 C 22.742188 -33.40625 25.660156 -32.710938 28.265625 -31.328125 C 30.878906 -29.941406 32.929688 -27.953125 34.421875 -25.359375 C 35.910156 -22.773438 36.65625 -19.769531 36.65625 -16.34375 Z M 19.578125 -26.1875 C 17.421875 -26.1875 15.609375 -25.570312 14.140625 -24.34375 C 12.671875 -23.125 11.769531 -21.453125 11.4375 -19.328125 L 27.65625 -19.328125 C 27.332031 -21.410156 26.4375 -23.070312 24.96875 -24.3125 C 23.5 -25.5625 21.703125 -26.1875 19.578125 -26.1875 Z M 19.578125 -26.1875 "/></g></g></g><g fill="#1a3b29" fill-opacity="1"><g transform="translate(145.739894, 202.292224)"><g><path d="M 24.40625 -33.40625 C 28.488281 -33.40625 31.785156 -32.179688 34.296875 -29.734375 C 36.804688 -27.285156 38.0625 -23.65625 38.0625 -18.84375 L 38.0625 0 L 28.515625 0 L 28.515625 -17.375 C 28.515625 -19.988281 27.941406 -21.9375 26.796875 -23.21875 C 25.660156 -24.5 24.007812 -25.140625 21.84375 -25.140625 C 19.4375 -25.140625 17.519531 -24.394531 16.09375 -22.90625 C 14.664062 -21.425781 13.953125 -19.21875 13.953125 -16.28125 L 13.953125 0 L 4.40625 0 L 4.40625 -45.40625 L 13.953125 -45.40625 L 13.953125 -29.5 C 15.210938 -30.757812 16.738281 -31.722656 18.53125 -32.390625 C 20.332031 -33.066406 22.289062 -33.40625 24.40625 -33.40625 Z M 24.40625 -33.40625 "/></g></g></g><g fill="#1a3b29" fill-opacity="1"><g transform="translate(191.135939, 202.292224)"><g><path d="M 17.6875 -33.40625 C 22.78125 -33.40625 26.691406 -32.191406 29.421875 -29.765625 C 32.160156 -27.335938 33.53125 -23.675781 33.53125 -18.78125 L 33.53125 0 L 24.59375 0 L 24.59375 -4.09375 C 22.800781 -1.039062 19.457031 0.484375 14.5625 0.484375 C 12.03125 0.484375 9.835938 0.0546875 7.984375 -0.796875 C 6.128906 -1.648438 4.710938 -2.832031 3.734375 -4.34375 C 2.753906 -5.851562 2.265625 -7.566406 2.265625 -9.484375 C 2.265625 -12.546875 3.414062 -14.953125 5.71875 -16.703125 C 8.019531 -18.453125 11.578125 -19.328125 16.390625 -19.328125 L 23.984375 -19.328125 C 23.984375 -21.410156 23.347656 -23.015625 22.078125 -24.140625 C 20.816406 -25.265625 18.921875 -25.828125 16.390625 -25.828125 C 14.640625 -25.828125 12.914062 -25.550781 11.21875 -25 C 9.53125 -24.445312 8.097656 -23.703125 6.921875 -22.765625 L 3.484375 -29.4375 C 5.285156 -30.695312 7.4375 -31.671875 9.9375 -32.359375 C 12.445312 -33.054688 15.03125 -33.40625 17.6875 -33.40625 Z M 16.953125 -5.9375 C 18.578125 -5.9375 20.019531 -6.3125 21.28125 -7.0625 C 22.550781 -7.820312 23.453125 -8.9375 23.984375 -10.40625 L 23.984375 -13.765625 L 17.4375 -13.765625 C 13.519531 -13.765625 11.5625 -12.476562 11.5625 -9.90625 C 11.5625 -8.6875 12.039062 -7.71875 13 -7 C 13.957031 -6.289062 15.273438 -5.9375 16.953125 -5.9375 Z M 16.953125 -5.9375 "/></g></g></g><g fill="#1a3b29" fill-opacity="1"><g transform="translate(232.004634, 202.292224)"><g><path d="M 18.546875 -12.90625 L 13.953125 -8.375 L 13.953125 0 L 4.40625 0 L 4.40625 -45.40625 L 13.953125 -45.40625 L 13.953125 -19.703125 L 27.90625 -32.921875 L 39.28125 -32.921875 L 25.578125 -18.96875 L 40.5 0 L 28.9375 0 Z M 18.546875 -12.90625 "/></g></g></g><g fill="#1a3b29" fill-opacity="1"><g transform="translate(275.504087, 202.292224)"><g><path d="M 25.640625 -1.59375 C 24.703125 -0.894531 23.546875 -0.375 22.171875 -0.03125 C 20.804688 0.3125 19.367188 0.484375 17.859375 0.484375 C 13.953125 0.484375 10.925781 -0.507812 8.78125 -2.5 C 6.632812 -4.5 5.5625 -7.4375 5.5625 -11.3125 L 5.5625 -24.84375 L 0.484375 -24.84375 L 0.484375 -32.1875 L 5.5625 -32.1875 L 5.5625 -40.203125 L 15.109375 -40.203125 L 15.109375 -32.1875 L 23.3125 -32.1875 L 23.3125 -24.84375 L 15.109375 -24.84375 L 15.109375 -11.4375 C 15.109375 -10.050781 15.460938 -8.976562 16.171875 -8.21875 C 16.890625 -7.46875 17.90625 -7.09375 19.21875 -7.09375 C 20.726562 -7.09375 22.007812 -7.503906 23.0625 -8.328125 Z M 25.640625 -1.59375 "/></g></g></g><g fill="#1a3b29" fill-opacity="1"><g transform="translate(305.23792, 202.292224)"><g><path d="M 8.015625 0.484375 C 6.335938 0.484375 4.925781 -0.0820312 3.78125 -1.21875 C 2.644531 -2.363281 2.078125 -3.789062 2.078125 -5.5 C 2.078125 -7.257812 2.644531 -8.675781 3.78125 -9.75 C 4.925781 -10.832031 6.335938 -11.375 8.015625 -11.375 C 9.691406 -11.375 11.097656 -10.832031 12.234375 -9.75 C 13.378906 -8.675781 13.953125 -7.257812 13.953125 -5.5 C 13.953125 -3.789062 13.378906 -2.363281 12.234375 -1.21875 C 11.097656 -0.0820312 9.691406 0.484375 8.015625 0.484375 Z M 8.015625 0.484375 "/></g></g></g><g fill="#1a3b29" fill-opacity="1"><g transform="translate(67.614375, 228.017014)"><g><path d="M 7.6875 -7.421875 L 7.6875 0 L 5.96875 0 L 5.96875 -3.046875 L 2.59375 -3.046875 L 2.59375 0 L 0.875 0 L 0.875 -7.421875 L 2.59375 -7.421875 L 2.59375 -4.484375 L 5.96875 -4.484375 L 5.96875 -7.421875 Z M 7.6875 -7.421875 "/></g></g></g><g fill="#1a3b29" fill-opacity="1"><g transform="translate(78.35516, 228.017014)"><g><path d="M 4.46875 0.125 C 3.695312 0.125 3.003906 -0.0390625 2.390625 -0.375 C 1.773438 -0.707031 1.289062 -1.160156 0.9375 -1.734375 C 0.582031 -2.316406 0.40625 -2.972656 0.40625 -3.703125 C 0.40625 -4.429688 0.582031 -5.085938 0.9375 -5.671875 C 1.289062 -6.253906 1.773438 -6.710938 2.390625 -7.046875 C 3.003906 -7.378906 3.695312 -7.546875 4.46875 -7.546875 C 5.238281 -7.546875 5.929688 -7.378906 6.546875 -7.046875 C 7.160156 -6.710938 7.644531 -6.253906 8 -5.671875 C 8.351562 -5.085938 8.53125 -4.429688 8.53125 -3.703125 C 8.53125 -2.972656 8.351562 -2.316406 8 -1.734375 C 7.644531 -1.160156 7.160156 -0.707031 6.546875 -0.375 C 5.929688 -0.0390625 5.238281 0.125 4.46875 0.125 Z M 4.46875 -1.328125 C 4.90625 -1.328125 5.300781 -1.425781 5.65625 -1.625 C 6.007812 -1.832031 6.285156 -2.113281 6.484375 -2.46875 C 6.691406 -2.832031 6.796875 -3.242188 6.796875 -3.703125 C 6.796875 -4.160156 6.691406 -4.570312 6.484375 -4.9375 C 6.285156 -5.300781 6.007812 -5.582031 5.65625 -5.78125 C 5.300781 -5.976562 4.90625 -6.078125 4.46875 -6.078125 C 4.03125 -6.078125 3.632812 -5.976562 3.28125 -5.78125 C 2.925781 -5.582031 2.648438 -5.300781 2.453125 -4.9375 C 2.253906 -4.570312 2.15625 -4.160156 2.15625 -3.703125 C 2.15625 -3.242188 2.253906 -2.832031 2.453125 -2.46875 C 2.648438 -2.113281 2.925781 -1.832031 3.28125 -1.625 C 3.632812 -1.425781 4.03125 -1.328125 4.46875 -1.328125 Z M 4.46875 -1.328125 "/></g></g></g><g fill="#1a3b29" fill-opacity="1"><g transform="translate(89.477247, 228.017014)"><g><path d="M 4.171875 0.125 C 3.109375 0.125 2.28125 -0.164062 1.6875 -0.75 C 1.101562 -1.332031 0.8125 -2.171875 0.8125 -3.265625 L 0.8125 -7.421875 L 2.53125 -7.421875 L 2.53125 -3.328125 C 2.53125 -1.992188 3.082031 -1.328125 4.1875 -1.328125 C 4.71875 -1.328125 5.125 -1.488281 5.40625 -1.8125 C 5.695312 -2.132812 5.84375 -2.640625 5.84375 -3.328125 L 5.84375 -7.421875 L 7.53125 -7.421875 L 7.53125 -3.265625 C 7.53125 -2.171875 7.234375 -1.332031 6.640625 -0.75 C 6.054688 -0.164062 5.234375 0.125 4.171875 0.125 Z M 4.171875 0.125 "/></g></g></g><g fill="#1a3b29" fill-opacity="1"><g transform="translate(100.006204, 228.017014)"><g><path d="M 2.421875 -6.015625 L 0.046875 -6.015625 L 0.046875 -7.421875 L 6.5 -7.421875 L 6.5 -6.015625 L 4.125 -6.015625 L 4.125 0 L 2.421875 0 Z M 2.421875 -6.015625 "/></g></g></g><g fill="#1a3b29" fill-opacity="1"><g transform="translate(108.734577, 228.017014)"><g><path d="M 12.09375 -7.421875 L 9.65625 0 L 7.8125 0 L 6.1875 -5.015625 L 4.5 0 L 2.671875 0 L 0.234375 -7.421875 L 2.015625 -7.421875 L 3.6875 -2.203125 L 5.4375 -7.421875 L 7.03125 -7.421875 L 8.71875 -2.15625 L 10.453125 -7.421875 Z M 12.09375 -7.421875 "/></g></g></g><g fill="#1a3b29" fill-opacity="1"><g transform="translate(123.235403, 228.017014)"><g><path d="M 6.625 -1.375 L 6.625 0 L 0.875 0 L 0.875 -7.421875 L 6.484375 -7.421875 L 6.484375 -6.03125 L 2.578125 -6.03125 L 2.578125 -4.421875 L 6.03125 -4.421875 L 6.03125 -3.09375 L 2.578125 -3.09375 L 2.578125 -1.375 Z M 6.625 -1.375 "/></g></g></g><g fill="#1a3b29" fill-opacity="1"><g transform="translate(132.525134, 228.017014)"><g><path d="M 5.609375 0 L 4.171875 -2.0625 L 2.59375 -2.0625 L 2.59375 0 L 0.875 0 L 0.875 -7.421875 L 4.09375 -7.421875 C 4.75 -7.421875 5.316406 -7.3125 5.796875 -7.09375 C 6.285156 -6.875 6.660156 -6.5625 6.921875 -6.15625 C 7.179688 -5.75 7.3125 -5.269531 7.3125 -4.71875 C 7.3125 -4.175781 7.175781 -3.703125 6.90625 -3.296875 C 6.644531 -2.898438 6.269531 -2.597656 5.78125 -2.390625 L 7.453125 0 Z M 5.578125 -4.71875 C 5.578125 -5.132812 5.441406 -5.453125 5.171875 -5.671875 C 4.898438 -5.898438 4.507812 -6.015625 4 -6.015625 L 2.59375 -6.015625 L 2.59375 -3.4375 L 4 -3.4375 C 4.507812 -3.4375 4.898438 -3.546875 5.171875 -3.765625 C 5.441406 -3.992188 5.578125 -4.3125 5.578125 -4.71875 Z M 5.578125 -4.71875 "/></g></g></g><g fill="#1a3b29" fill-opacity="1"><g transform="translate(142.492731, 228.017014)"><g><path d="M 3.578125 -2.90625 L 2.578125 -1.875 L 2.578125 0 L 0.875 0 L 0.875 -7.421875 L 2.578125 -7.421875 L 2.578125 -3.953125 L 5.875 -7.421875 L 7.78125 -7.421875 L 4.703125 -4.109375 L 7.953125 0 L 5.953125 0 Z M 3.578125 -2.90625 "/></g></g></g><g fill="#1a3b29" fill-opacity="1"><g transform="translate(152.513283, 228.017014)"><g/></g></g><g fill="#1a3b29" fill-opacity="1"><g transform="translate(157.693451, 228.017014)"><g><path d="M 7.6875 -7.421875 L 7.6875 0 L 6.265625 0 L 2.578125 -4.5 L 2.578125 0 L 0.875 0 L 0.875 -7.421875 L 2.296875 -7.421875 L 5.984375 -2.90625 L 5.984375 -7.421875 Z M 7.6875 -7.421875 "/></g></g></g><g fill="#1a3b29" fill-opacity="1"><g transform="translate(168.434235, 228.017014)"><g><path d="M 5.765625 -1.59375 L 2.3125 -1.59375 L 1.65625 0 L -0.09375 0 L 3.203125 -7.421875 L 4.90625 -7.421875 L 8.21875 0 L 6.421875 0 Z M 5.21875 -2.890625 L 4.046875 -5.734375 L 2.875 -2.890625 Z M 5.21875 -2.890625 "/></g></g></g><g fill="#1a3b29" fill-opacity="1"><g transform="translate(178.73018, 228.017014)"><g><path d="M 5.765625 -1.59375 L 2.3125 -1.59375 L 1.65625 0 L -0.09375 0 L 3.203125 -7.421875 L 4.90625 -7.421875 L 8.21875 0 L 6.421875 0 Z M 5.21875 -2.890625 L 4.046875 -5.734375 L 2.875 -2.890625 Z M 5.21875 -2.890625 "/></g></g></g><g fill="#1a3b29" fill-opacity="1"><g transform="translate(189.026126, 228.017014)"><g><path d="M 5.609375 0 L 4.171875 -2.0625 L 2.59375 -2.0625 L 2.59375 0 L 0.875 0 L 0.875 -7.421875 L 4.09375 -7.421875 C 4.75 -7.421875 5.316406 -7.3125 5.796875 -7.09375 C 6.285156 -6.875 6.660156 -6.5625 6.921875 -6.15625 C 7.179688 -5.75 7.3125 -5.269531 7.3125 -4.71875 C 7.3125 -4.175781 7.175781 -3.703125 6.90625 -3.296875 C 6.644531 -2.898438 6.269531 -2.597656 5.78125 -2.390625 L 7.453125 0 Z M 5.578125 -4.71875 C 5.578125 -5.132812 5.441406 -5.453125 5.171875 -5.671875 C 4.898438 -5.898438 4.507812 -6.015625 4 -6.015625 L 2.59375 -6.015625 L 2.59375 -3.4375 L 4 -3.4375 C 4.507812 -3.4375 4.898438 -3.546875 5.171875 -3.765625 C 5.441406 -3.992188 5.578125 -4.3125 5.578125 -4.71875 Z M 5.578125 -4.71875 "/></g></g></g><g fill="#1a3b29" fill-opacity="1"><g transform="translate(198.993723, 228.017014)"><g/></g></g><g fill="#1a3b29" fill-opacity="1"><g transform="translate(204.173891, 228.017014)"><g><path d="M 4.171875 0.125 C 3.109375 0.125 2.28125 -0.164062 1.6875 -0.75 C 1.101562 -1.332031 0.8125 -2.171875 0.8125 -3.265625 L 0.8125 -7.421875 L 2.53125 -7.421875 L 2.53125 -3.328125 C 2.53125 -1.992188 3.082031 -1.328125 4.1875 -1.328125 C 4.71875 -1.328125 5.125 -1.488281 5.40625 -1.8125 C 5.695312 -2.132812 5.84375 -2.640625 5.84375 -3.328125 L 5.84375 -7.421875 L 7.53125 -7.421875 L 7.53125 -3.265625 C 7.53125 -2.171875 7.234375 -1.332031 6.640625 -0.75 C 6.054688 -0.164062 5.234375 0.125 4.171875 0.125 Z M 4.171875 0.125 "/></g></g></g><g fill="#1a3b29" fill-opacity="1"><g transform="translate(214.702852, 228.017014)"><g><path d="M 12.09375 -7.421875 L 9.65625 0 L 7.8125 0 L 6.1875 -5.015625 L 4.5 0 L 2.671875 0 L 0.234375 -7.421875 L 2.015625 -7.421875 L 3.6875 -2.203125 L 5.4375 -7.421875 L 7.03125 -7.421875 L 8.71875 -2.15625 L 10.453125 -7.421875 Z M 12.09375 -7.421875 "/></g></g></g><g fill="#1a3b29" fill-opacity="1"><g transform="translate(229.203675, 228.017014)"><g/></g></g><g fill="#1a3b29" fill-opacity="1"><g transform="translate(234.383843, 228.017014)"><g><path d="M 5.890625 -3.828125 L 7.453125 -3.828125 L 7.453125 -0.8125 C 7.054688 -0.507812 6.59375 -0.273438 6.0625 -0.109375 C 5.53125 0.046875 4.992188 0.125 4.453125 0.125 C 3.691406 0.125 3.003906 -0.0351562 2.390625 -0.359375 C 1.773438 -0.691406 1.289062 -1.148438 0.9375 -1.734375 C 0.582031 -2.316406 0.40625 -2.972656 0.40625 -3.703125 C 0.40625 -4.441406 0.582031 -5.101562 0.9375 -5.6875 C 1.289062 -6.269531 1.773438 -6.722656 2.390625 -7.046875 C 3.015625 -7.378906 3.710938 -7.546875 4.484375 -7.546875 C 5.140625 -7.546875 5.734375 -7.4375 6.265625 -7.21875 C 6.796875 -7 7.238281 -6.679688 7.59375 -6.265625 L 6.5 -5.25 C 5.96875 -5.800781 5.328125 -6.078125 4.578125 -6.078125 C 4.097656 -6.078125 3.675781 -5.976562 3.3125 -5.78125 C 2.945312 -5.582031 2.660156 -5.300781 2.453125 -4.9375 C 2.253906 -4.582031 2.15625 -4.171875 2.15625 -3.703125 C 2.15625 -3.242188 2.253906 -2.832031 2.453125 -2.46875 C 2.660156 -2.113281 2.945312 -1.832031 3.3125 -1.625 C 3.675781 -1.425781 4.09375 -1.328125 4.5625 -1.328125 C 5.050781 -1.328125 5.492188 -1.4375 5.890625 -1.65625 Z M 5.890625 -3.828125 "/></g></g></g><g fill="#1a3b29" fill-opacity="1"><g transform="translate(244.732738, 228.017014)"><g><path d="M 4.46875 0.125 C 3.695312 0.125 3.003906 -0.0390625 2.390625 -0.375 C 1.773438 -0.707031 1.289062 -1.160156 0.9375 -1.734375 C 0.582031 -2.316406 0.40625 -2.972656 0.40625 -3.703125 C 0.40625 -4.429688 0.582031 -5.085938 0.9375 -5.671875 C 1.289062 -6.253906 1.773438 -6.710938 2.390625 -7.046875 C 3.003906 -7.378906 3.695312 -7.546875 4.46875 -7.546875 C 5.238281 -7.546875 5.929688 -7.378906 6.546875 -7.046875 C 7.160156 -6.710938 7.644531 -6.253906 8 -5.671875 C 8.351562 -5.085938 8.53125 -4.429688 8.53125 -3.703125 C 8.53125 -2.972656 8.351562 -2.316406 8 -1.734375 C 7.644531 -1.160156 7.160156 -0.707031 6.546875 -0.375 C 5.929688 -0.0390625 5.238281 0.125 4.46875 0.125 Z M 4.46875 -1.328125 C 4.90625 -1.328125 5.300781 -1.425781 5.65625 -1.625 C 6.007812 -1.832031 6.285156 -2.113281 6.484375 -2.46875 C 6.691406 -2.832031 6.796875 -3.242188 6.796875 -3.703125 C 6.796875 -4.160156 6.691406 -4.570312 6.484375 -4.9375 C 6.285156 -5.300781 6.007812 -5.582031 5.65625 -5.78125 C 5.300781 -5.976562 4.90625 -6.078125 4.46875 -6.078125 C 4.03125 -6.078125 3.632812 -5.976562 3.28125 -5.78125 C 2.925781 -5.582031 2.648438 -5.300781 2.453125 -4.9375 C 2.253906 -4.570312 2.15625 -4.160156 2.15625 -3.703125 C 2.15625 -3.242188 2.253906 -2.832031 2.453125 -2.46875 C 2.648438 -2.113281 2.925781 -1.832031 3.28125 -1.625 C 3.632812 -1.425781 4.03125 -1.328125 4.46875 -1.328125 Z M 4.46875 -1.328125 "/></g></g></g><g fill="#1a3b29" fill-opacity="1"><g transform="translate(255.854836, 228.017014)"><g><path d="M 6.625 -1.375 L 6.625 0 L 0.875 0 L 0.875 -7.421875 L 6.484375 -7.421875 L 6.484375 -6.03125 L 2.578125 -6.03125 L 2.578125 -4.421875 L 6.03125 -4.421875 L 6.03125 -3.09375 L 2.578125 -3.09375 L 2.578125 -1.375 Z M 6.625 -1.375 "/></g></g></g><g fill="#1a3b29" fill-opacity="1"><g transform="translate(265.144561, 228.017014)"><g><path d="M 3.3125 0.125 C 2.726562 0.125 2.160156 0.046875 1.609375 -0.109375 C 1.066406 -0.265625 0.628906 -0.472656 0.296875 -0.734375 L 0.875 -2.015625 C 1.195312 -1.785156 1.578125 -1.597656 2.015625 -1.453125 C 2.453125 -1.316406 2.890625 -1.25 3.328125 -1.25 C 3.816406 -1.25 4.175781 -1.320312 4.40625 -1.46875 C 4.632812 -1.613281 4.75 -1.804688 4.75 -2.046875 C 4.75 -2.222656 4.679688 -2.367188 4.546875 -2.484375 C 4.410156 -2.597656 4.234375 -2.691406 4.015625 -2.765625 C 3.804688 -2.835938 3.515625 -2.914062 3.140625 -3 C 2.578125 -3.132812 2.113281 -3.269531 1.75 -3.40625 C 1.394531 -3.539062 1.085938 -3.753906 0.828125 -4.046875 C 0.566406 -4.335938 0.4375 -4.734375 0.4375 -5.234375 C 0.4375 -5.660156 0.550781 -6.046875 0.78125 -6.390625 C 1.019531 -6.742188 1.375 -7.023438 1.84375 -7.234375 C 2.3125 -7.441406 2.882812 -7.546875 3.5625 -7.546875 C 4.039062 -7.546875 4.503906 -7.488281 4.953125 -7.375 C 5.410156 -7.257812 5.804688 -7.097656 6.140625 -6.890625 L 5.609375 -5.578125 C 4.929688 -5.972656 4.25 -6.171875 3.5625 -6.171875 C 3.082031 -6.171875 2.726562 -6.09375 2.5 -5.9375 C 2.269531 -5.78125 2.15625 -5.570312 2.15625 -5.3125 C 2.15625 -5.0625 2.285156 -4.875 2.546875 -4.75 C 2.804688 -4.625 3.210938 -4.503906 3.765625 -4.390625 C 4.328125 -4.253906 4.785156 -4.117188 5.140625 -3.984375 C 5.503906 -3.847656 5.816406 -3.632812 6.078125 -3.34375 C 6.335938 -3.050781 6.46875 -2.660156 6.46875 -2.171875 C 6.46875 -1.742188 6.347656 -1.351562 6.109375 -1 C 5.867188 -0.65625 5.507812 -0.378906 5.03125 -0.171875 C 4.5625 0.0234375 3.988281 0.125 3.3125 0.125 Z M 3.3125 0.125 "/></g></g></g><g fill="#1a3b29" fill-opacity="1"><g transform="translate(274.084763, 228.017014)"><g><path d="M 2.421875 -6.015625 L 0.046875 -6.015625 L 0.046875 -7.421875 L 6.5 -7.421875 L 6.5 -6.015625 L 4.125 -6.015625 L 4.125 0 L 2.421875 0 Z M 2.421875 -6.015625 "/></g></g></g><g fill="#1a3b29" fill-opacity="1"><g transform="translate(282.813147, 228.017014)"><g><path d="M 0.875 -7.421875 L 2.59375 -7.421875 L 2.59375 0 L 0.875 0 Z M 0.875 -7.421875 "/></g></g></g><g fill="#1a3b29" fill-opacity="1"><g transform="translate(288.469934, 228.017014)"><g><path d="M 7.6875 -7.421875 L 7.6875 0 L 6.265625 0 L 2.578125 -4.5 L 2.578125 0 L 0.875 0 L 0.875 -7.421875 L 2.296875 -7.421875 L 5.984375 -2.90625 L 5.984375 -7.421875 Z M 7.6875 -7.421875 "/></g></g></g><g fill="#1a3b29" fill-opacity="1"><g transform="translate(299.210713, 228.017014)"><g><path d="M 5.890625 -3.828125 L 7.453125 -3.828125 L 7.453125 -0.8125 C 7.054688 -0.507812 6.59375 -0.273438 6.0625 -0.109375 C 5.53125 0.046875 4.992188 0.125 4.453125 0.125 C 3.691406 0.125 3.003906 -0.0351562 2.390625 -0.359375 C 1.773438 -0.691406 1.289062 -1.148438 0.9375 -1.734375 C 0.582031 -2.316406 0.40625 -2.972656 0.40625 -3.703125 C 0.40625 -4.441406 0.582031 -5.101562 0.9375 -5.6875 C 1.289062 -6.269531 1.773438 -6.722656 2.390625 -7.046875 C 3.015625 -7.378906 3.710938 -7.546875 4.484375 -7.546875 C 5.140625 -7.546875 5.734375 -7.4375 6.265625 -7.21875 C 6.796875 -7 7.238281 -6.679688 7.59375 -6.265625 L 6.5 -5.25 C 5.96875 -5.800781 5.328125 -6.078125 4.578125 -6.078125 C 4.097656 -6.078125 3.675781 -5.976562 3.3125 -5.78125 C 2.945312 -5.582031 2.660156 -5.300781 2.453125 -4.9375 C 2.253906 -4.582031 2.15625 -4.171875 2.15625 -3.703125 C 2.15625 -3.242188 2.253906 -2.832031 2.453125 -2.46875 C 2.660156 -2.113281 2.945312 -1.832031 3.3125 -1.625 C 3.675781 -1.425781 4.09375 -1.328125 4.5625 -1.328125 C 5.050781 -1.328125 5.492188 -1.4375 5.890625 -1.65625 Z M 5.890625 -3.828125 "/></g></g></g></svg>