<svg xmlns="http://www.w3.org/2000/svg" xmlns:xlink="http://www.w3.org/1999/xlink" width="500" zoomAndPan="magnify" viewBox="0 0 375 374.999991" height="500" preserveAspectRatio="xMidYMid meet" version="1.0"><defs><clipPath id="7ee65e571f"><path d="M 118.894531 114.199219 L 258.378906 114.199219 L 258.378906 304.289062 L 118.894531 304.289062 Z M 118.894531 114.199219 " clip-rule="nonzero"/></clipPath><clipPath id="c7facd1a90"><path d="M 97 74 L 221 74 L 221 159 L 97 159 Z M 97 74 " clip-rule="nonzero"/></clipPath><clipPath id="cd1ac8f8fc"><path d="M 203.96875 74.65625 L 220.347656 121.210938 L 113.476562 158.808594 L 97.097656 112.253906 Z M 203.96875 74.65625 " clip-rule="nonzero"/></clipPath><clipPath id="bf484df02a"><path d="M 203.96875 74.65625 L 220.347656 121.210938 L 113.476562 158.808594 L 97.097656 112.253906 Z M 203.96875 74.65625 " clip-rule="nonzero"/></clipPath><clipPath id="550121fd65"><path d="M 104 129 L 152 129 L 152 173 L 104 173 Z M 104 129 " clip-rule="nonzero"/></clipPath><clipPath id="fb364d5785"><path d="M 140.261719 129.324219 L 151.1875 160.378906 L 115.703125 172.863281 L 104.777344 141.808594 Z M 140.261719 129.324219 " clip-rule="nonzero"/></clipPath><clipPath id="a2ebf5ef48"><path d="M 140.261719 129.324219 L 151.1875 160.378906 L 115.703125 172.863281 L 104.777344 141.808594 Z M 140.261719 129.324219 " clip-rule="nonzero"/></clipPath><clipPath id="d2563a09f9"><path d="M 161 77 L 278 77 L 278 157 L 161 157 Z M 161 77 " clip-rule="nonzero"/></clipPath><clipPath id="ffc49750ec"><path d="M 277.890625 105.417969 L 263.753906 156.402344 L 161.484375 128.046875 L 175.621094 77.058594 Z M 277.890625 105.417969 " clip-rule="nonzero"/></clipPath><clipPath id="f6220fc46f"><path d="M 277.890625 105.417969 L 263.753906 156.402344 L 161.484375 128.046875 L 175.621094 77.058594 Z M 277.890625 105.417969 " clip-rule="nonzero"/></clipPath><clipPath id="a2b7cc6ed6"><path d="M 119 71 L 259.222656 71 L 259.222656 304.441406 L 119 304.441406 Z M 119 71 " clip-rule="nonzero"/></clipPath></defs><rect x="-37.5" width="450" fill="#ffffff" y="-37.499999" height="449.999989" fill-opacity="1"/><rect x="-37.5" width="450" fill="#ffffff" y="-37.499999" height="449.999989" fill-opacity="1"/><g clip-path="url(#7ee65e571f)"><path fill="#1a3b29" d="M 248.832031 114.199219 L 128.4375 114.199219 C 127.8125 114.199219 127.195312 114.261719 126.585938 114.382812 C 125.972656 114.507812 125.378906 114.6875 124.800781 114.925781 C 124.226562 115.164062 123.679688 115.457031 123.160156 115.804688 C 122.640625 116.152344 122.160156 116.546875 121.71875 116.988281 C 121.277344 117.429688 120.882812 117.90625 120.539062 118.425781 C 120.191406 118.945312 119.898438 119.492188 119.660156 120.070312 C 119.421875 120.644531 119.238281 121.238281 119.117188 121.851562 C 118.996094 122.464844 118.933594 123.082031 118.933594 123.703125 L 118.933594 294.785156 C 118.933594 295.40625 118.996094 296.027344 119.117188 296.636719 C 119.238281 297.25 119.421875 297.84375 119.660156 298.417969 C 119.898438 298.996094 120.191406 299.542969 120.539062 300.0625 C 120.882812 300.582031 121.277344 301.058594 121.71875 301.5 C 122.160156 301.941406 122.640625 302.335938 123.160156 302.683594 C 123.679688 303.03125 124.226562 303.324219 124.800781 303.5625 C 125.378906 303.800781 125.972656 303.980469 126.585938 304.105469 C 127.195312 304.226562 127.8125 304.289062 128.4375 304.289062 L 248.832031 304.289062 C 249.457031 304.289062 250.074219 304.226562 250.6875 304.105469 C 251.300781 303.980469 251.894531 303.800781 252.46875 303.5625 C 253.046875 303.324219 253.59375 303.03125 254.113281 302.683594 C 254.628906 302.335938 255.109375 301.941406 255.550781 301.5 C 255.992188 301.058594 256.386719 300.582031 256.734375 300.0625 C 257.082031 299.542969 257.375 298.996094 257.613281 298.417969 C 257.851562 297.84375 258.03125 297.25 258.152344 296.636719 C 258.277344 296.027344 258.335938 295.40625 258.339844 294.785156 L 258.339844 123.703125 C 258.335938 123.082031 258.277344 122.464844 258.152344 121.851562 C 258.03125 121.238281 257.851562 120.644531 257.613281 120.070312 C 257.371094 119.492188 257.082031 118.945312 256.734375 118.425781 C 256.386719 117.90625 255.992188 117.429688 255.550781 116.988281 C 255.109375 116.546875 254.628906 116.152344 254.113281 115.804688 C 253.59375 115.457031 253.046875 115.164062 252.46875 114.925781 C 251.894531 114.6875 251.300781 114.507812 250.6875 114.382812 C 250.074219 114.261719 249.457031 114.199219 248.832031 114.199219 Z M 252 262.949219 C 242.003906 249.03125 232.992188 233.554688 232.992188 209.246094 C 232.992188 184.941406 242.011719 169.472656 252 155.550781 Z M 190.003906 158.640625 L 189.125 160.03125 C 181.296875 172.421875 168.800781 186.117188 156.71875 199.359375 C 144.492188 212.765625 132.777344 225.613281 125.269531 237.433594 L 125.269531 198.449219 L 126.152344 197.8125 C 131.992188 193.582031 139.257812 188.320312 146.308594 182.433594 C 146.632812 182.164062 146.894531 181.84375 147.089844 181.472656 C 147.285156 181.101562 147.402344 180.703125 147.441406 180.285156 C 147.476562 179.867188 147.433594 179.457031 147.308594 179.054688 C 147.183594 178.652344 146.988281 178.289062 146.71875 177.96875 C 146.449219 177.644531 146.125 177.386719 145.753906 177.191406 C 145.382812 176.996094 144.984375 176.878906 144.566406 176.84375 C 144.148438 176.804688 143.738281 176.847656 143.335938 176.976562 C 142.933594 177.101562 142.570312 177.300781 142.25 177.570312 C 136.40625 182.445312 130.605469 186.738281 125.269531 190.617188 L 125.269531 163.445312 C 126.734375 162.789062 128.167969 162.140625 129.726562 161.449219 C 150.367188 152.277344 155.816406 138.429688 156.839844 120.535156 L 173.4375 120.535156 C 176.621094 136.085938 169.46875 152.042969 151.589844 169.226562 C 151.289062 169.519531 151.054688 169.855469 150.890625 170.242188 C 150.722656 170.625 150.636719 171.027344 150.628906 171.445312 C 150.625 171.863281 150.695312 172.265625 150.847656 172.65625 C 151.003906 173.046875 151.222656 173.390625 151.511719 173.691406 C 151.804688 173.996094 152.140625 174.230469 152.523438 174.398438 C 152.90625 174.566406 153.308594 174.65625 153.726562 174.664062 C 154.144531 174.675781 154.546875 174.605469 154.9375 174.453125 C 155.328125 174.304688 155.675781 174.085938 155.980469 173.796875 C 175.113281 155.40625 182.960938 137.9375 179.898438 120.535156 L 201.273438 120.535156 C 200.894531 141.417969 196.722656 148.046875 190.003906 158.640625 Z M 128.4375 120.535156 L 150.5 120.535156 C 149.535156 136.328125 144.8125 147.8125 127.152344 155.660156 C 126.492188 155.949219 125.910156 156.214844 125.269531 156.503906 L 125.269531 123.703125 C 125.269531 123.285156 125.351562 122.878906 125.511719 122.492188 C 125.671875 122.105469 125.902344 121.761719 126.199219 121.464844 C 126.496094 121.167969 126.839844 120.941406 127.226562 120.777344 C 127.613281 120.617188 128.019531 120.535156 128.4375 120.535156 Z M 125.269531 251.058594 C 130.601562 237.40625 146.246094 220.242188 161.402344 203.632812 C 167.671875 196.757812 174.042969 189.765625 179.867188 182.855469 C 169.761719 218.507812 179 256.421875 207.84375 297.953125 L 185.0625 297.953125 C 183.222656 288.34375 180.597656 278.960938 177.179688 269.792969 C 172.082031 256.21875 168.5 242.257812 166.4375 227.902344 C 166.367188 227.28125 166.136719 226.726562 165.738281 226.242188 C 165.34375 225.757812 164.847656 225.421875 164.25 225.234375 C 163.652344 225.042969 163.050781 225.03125 162.449219 225.199219 C 161.84375 225.363281 161.335938 225.679688 160.921875 226.148438 C 152.523438 236.488281 145.390625 247.636719 139.523438 259.59375 C 133.65625 271.550781 129.207031 284.015625 126.171875 296.984375 C 125.570312 296.375 125.269531 295.640625 125.269531 294.785156 Z M 160.058594 268.816406 C 159.929688 268.175781 159.632812 267.625 159.164062 267.167969 C 158.695312 266.710938 158.136719 266.429688 157.492188 266.316406 C 156.847656 266.207031 156.226562 266.285156 155.632812 266.558594 C 155.039062 266.832031 154.574219 267.246094 154.234375 267.808594 C 151.566406 272.4375 149.402344 277.289062 147.746094 282.367188 C 146.085938 287.445312 144.96875 292.640625 144.394531 297.953125 L 132.433594 297.953125 C 135.175781 286.796875 138.96875 276.007812 143.808594 265.589844 C 148.648438 255.167969 154.445312 245.3125 161.199219 236.023438 C 163.59375 248.214844 166.917969 260.152344 171.179688 271.824219 C 174.332031 280.34375 176.824219 289.054688 178.660156 297.953125 L 165.886719 297.953125 Z M 159.425781 297.953125 L 150.753906 297.953125 C 151.429688 291.457031 153.070312 285.214844 155.679688 279.226562 Z M 248.832031 297.953125 L 241.332031 297.953125 C 237.933594 290.875 234.167969 283.996094 230.039062 277.320312 C 229.824219 276.960938 229.546875 276.65625 229.210938 276.40625 C 228.875 276.15625 228.503906 275.980469 228.09375 275.878906 C 227.6875 275.777344 227.277344 275.753906 226.863281 275.816406 C 226.449219 275.878906 226.0625 276.015625 225.699219 276.230469 C 225.339844 276.445312 225.035156 276.722656 224.785156 277.058594 C 224.535156 277.394531 224.359375 277.765625 224.253906 278.171875 C 224.152344 278.578125 224.128906 278.988281 224.191406 279.402344 C 224.25 279.820312 224.386719 280.207031 224.601562 280.566406 C 227.921875 286.128906 231.3125 291.859375 234.316406 297.953125 L 215.636719 297.953125 C 179.890625 248.203125 172.972656 204.132812 194.570312 163.277344 L 195.355469 162.03125 C 202.179688 151.269531 207.179688 143.320312 207.605469 120.535156 L 234.476562 120.535156 C 230.859375 128.335938 226.792969 135.894531 222.28125 143.214844 C 211.96875 160.550781 201.308594 178.476562 201.308594 209.246094 C 201.261719 214.371094 201.566406 219.476562 202.21875 224.5625 C 202.867188 229.648438 203.863281 234.664062 205.199219 239.613281 C 206.539062 244.5625 208.207031 249.398438 210.207031 254.117188 C 212.203125 258.839844 214.515625 263.402344 217.136719 267.808594 C 217.339844 268.179688 217.605469 268.496094 217.933594 268.757812 C 218.265625 269.023438 218.632812 269.210938 219.035156 269.328125 C 219.441406 269.445312 219.855469 269.480469 220.273438 269.433594 C 220.691406 269.386719 221.085938 269.261719 221.453125 269.054688 C 221.824219 268.851562 222.136719 268.582031 222.398438 268.253906 C 222.660156 267.921875 222.851562 267.554688 222.964844 267.148438 C 223.078125 266.742188 223.113281 266.332031 223.0625 265.910156 C 223.011719 265.492188 222.882812 265.101562 222.675781 264.734375 C 220.1875 260.558594 217.996094 256.234375 216.101562 251.761719 C 214.207031 247.289062 212.621094 242.710938 211.351562 238.019531 C 210.082031 233.332031 209.136719 228.578125 208.515625 223.757812 C 207.894531 218.941406 207.605469 214.101562 207.644531 209.246094 C 207.644531 180.21875 217.398438 163.816406 227.726562 146.457031 C 232.894531 138.140625 237.453125 129.5 241.398438 120.535156 L 248.832031 120.535156 C 249.253906 120.535156 249.65625 120.617188 250.046875 120.777344 C 250.433594 120.941406 250.777344 121.167969 251.074219 121.464844 C 251.371094 121.761719 251.597656 122.105469 251.757812 122.492188 C 251.921875 122.878906 252 123.285156 252 123.703125 L 252 144.835938 L 251.6875 145.257812 C 239.382812 161.847656 226.65625 179.007812 226.65625 209.246094 C 226.65625 239.550781 239.425781 256.730469 251.773438 273.347656 L 252 273.65625 L 252 294.785156 C 252 295.203125 251.921875 295.609375 251.761719 295.996094 C 251.597656 296.382812 251.371094 296.726562 251.074219 297.023438 C 250.777344 297.320312 250.433594 297.550781 250.046875 297.710938 C 249.65625 297.871094 249.253906 297.953125 248.832031 297.953125 Z M 248.832031 297.953125 " fill-opacity="1" fill-rule="nonzero"/></g><g clip-path="url(#c7facd1a90)"><g clip-path="url(#cd1ac8f8fc)"><g clip-path="url(#bf484df02a)"><path fill="#ffffff" d="M 203.96875 74.65625 L 220.347656 121.210938 L 113.476562 158.808594 L 97.097656 112.253906 Z M 203.96875 74.65625 " fill-opacity="1" fill-rule="nonzero"/></g></g></g><g clip-path="url(#550121fd65)"><g clip-path="url(#fb364d5785)"><g clip-path="url(#a2ebf5ef48)"><path fill="#ffffff" d="M 140.261719 129.324219 L 151.1875 160.378906 L 115.703125 172.863281 L 104.777344 141.808594 Z M 140.261719 129.324219 " fill-opacity="1" fill-rule="nonzero"/></g></g></g><g clip-path="url(#d2563a09f9)"><g clip-path="url(#ffc49750ec)"><g clip-path="url(#f6220fc46f)"><path fill="#ffffff" d="M 277.890625 105.417969 L 263.753906 156.402344 L 161.484375 128.046875 L 175.621094 77.058594 Z M 277.890625 105.417969 " fill-opacity="1" fill-rule="nonzero"/></g></g></g><g clip-path="url(#a2b7cc6ed6)"><path fill="#1a3b29" d="M 180.636719 130.589844 L 179.863281 122.75 C 179.027344 114.535156 176.6875 106.664062 174.289062 99.375 C 173.789062 97.855469 173.53125 96.277344 173.53125 94.664062 C 173.53125 89.988281 175.609375 85.597656 179.222656 82.636719 C 182.046875 80.3125 185.449219 79.113281 189.046875 79.113281 C 190.121094 79.113281 191.214844 79.21875 192.324219 79.445312 C 198.273438 80.628906 203.101562 85.492188 204.300781 91.550781 C 204.847656 94.300781 204.679688 96.988281 203.800781 99.570312 C 201.582031 105.980469 199.199219 113.636719 198.410156 121.65625 L 197.515625 130.589844 C 196.953125 136.210938 200.476562 141.417969 205.910156 142.96875 L 248.429688 155.121094 C 250.097656 155.589844 251.253906 157.140625 251.253906 158.855469 L 251.253906 292.980469 C 251.253906 295.121094 249.507812 296.871094 247.367188 296.871094 L 130.785156 296.871094 C 128.644531 296.871094 126.898438 295.121094 126.898438 292.980469 L 126.898438 158.855469 C 126.898438 157.140625 128.050781 155.589844 129.722656 155.121094 L 172.242188 142.96875 C 177.675781 141.417969 181.195312 136.210938 180.636719 130.589844 Z M 170.101562 135.480469 L 127.582031 147.648438 C 122.601562 149.058594 119.125 153.675781 119.125 158.855469 L 119.125 292.980469 C 119.125 299.421875 124.347656 304.648438 130.785156 304.648438 L 247.367188 304.648438 C 253.804688 304.648438 259.023438 299.421875 259.023438 292.980469 L 259.023438 158.855469 C 259.023438 153.675781 255.546875 149.058594 250.570312 147.648438 L 208.050781 135.480469 C 206.230469 134.964844 205.058594 133.230469 205.242188 131.363281 L 206.136719 122.433594 C 206.867188 115.203125 209.082031 108.109375 211.148438 102.09375 C 212.484375 98.203125 212.757812 94.148438 211.921875 90.019531 C 210.113281 80.933594 202.84375 73.613281 193.84375 71.804688 C 186.859375 70.421875 179.726562 72.171875 174.304688 76.605469 C 168.871094 81.070312 165.757812 87.648438 165.757812 94.664062 C 165.757812 97.113281 166.140625 99.511719 166.914062 101.820312 C 169.175781 108.671875 171.375 116.066406 172.121094 123.527344 L 172.910156 131.363281 C 173.089844 133.230469 171.921875 134.964844 170.101562 135.480469 " fill-opacity="1" fill-rule="nonzero"/></g><path fill="#1a3b29" d="M 189.074219 102.441406 C 193.355469 102.441406 196.847656 98.949219 196.847656 94.664062 C 196.847656 90.382812 193.355469 86.890625 189.074219 86.890625 C 184.792969 86.890625 181.304688 90.382812 181.304688 94.664062 C 181.304688 98.949219 184.792969 102.441406 189.074219 102.441406 " fill-opacity="1" fill-rule="nonzero"/></svg>